<?xml version="1.0" encoding="UTF-8"?>
<svg id="Calque_1" data-name="Calque 1" xmlns="http://www.w3.org/2000/svg" xmlns:xlink="http://www.w3.org/1999/xlink" viewBox="0 0 241 61.6">
  <defs>
    <style>
      .cls-1 {
        fill: #fff;
      }

      .cls-2 {
        clip-path: url(#clippath-1);
      }

      .cls-3 {
        stroke: #c60;
        stroke-miterlimit: 10;
      }

      .cls-3, .cls-4 {
        fill: none;
      }

      .cls-5 {
        fill: #df5601;
      }

      .cls-6 {
        clip-path: url(#clippath);
      }
    </style>
    <clipPath id="clippath">
      <path class="cls-4" d="m32.7,36.9h-10.8l-10.2-11.1,10.2-11.1h10.8l-10.3,11.1,10.3,11.1Z"/>
    </clipPath>
    <clipPath id="clippath-1">
      <path class="cls-4" d="m30.5,25h10.8l10.2,11.1-10.2,11.1h-10.8l10.3-11.1-10.3-11.1Z"/>
    </clipPath>
  </defs>
  <g>
    <g>
      <path class="cls-5" d="m85.7,29l-3.1,9.3h-4l10.1-29.7h4.6l10.1,29.7h-4.1l-3.2-9.3h-10.5Zm9.7-3l-2.9-8.5c-.7-1.9-1.1-3.7-1.5-5.4h0c-.4,1.8-.9,3.6-1.5,5.4l-2.9,8.6h8.9Z"/>
      <path class="cls-5" d="m109.7,7.1h3.9v31.2h-3.9V7.1Z"/>
      <path class="cls-5" d="m134.1,38.3l-.3-2.7h-.1c-1.2,1.7-3.5,3.2-6.5,3.2-4.3,0-6.5-3-6.5-6.1,0-5.1,4.6-8,12.8-7.9v-.4c0-1.8-.5-4.9-4.8-4.9s-4,.6-5.5,1.6l-.9-2.6c1.8-1.1,4.3-1.9,7-1.9,6.5,0,8.1,4.4,8.1,8.7v8c0,1.8,0,3.7.4,5.1h-3.5Zm-.6-10.9c-4.2,0-9,.7-9,4.8s1.7,3.7,3.7,3.7,4.5-1.8,5.1-3.6c.1-.4.2-.8.2-1.2v-3.7Z"/>
      <path class="cls-5" d="m145.7,22.8c0-2.2,0-4-.2-5.8h3.4l.2,3.4h.1c1.2-2,3.2-3.9,6.7-3.9s5.1,1.8,6,4.3h0c.7-1.2,1.5-2.1,2.4-2.8,1.3-1,2.7-1.5,4.7-1.5s7,1.8,7,9.2v12.5h-3.8v-12.1c0-4.1-1.5-6.6-4.6-6.6s-3.9,1.6-4.6,3.5c-.2.5-.3,1.2-.3,1.9v13.2h-3.8v-12.8c0-3.4-1.5-5.9-4.4-5.9s-4.2,1.9-4.8,3.9c-.2.6-.3,1.2-.3,1.9v12.8h-3.8v-15.5Z"/>
      <path class="cls-5" d="m188.9,11c0,1.3-.9,2.4-2.5,2.4s-2.3-1.1-2.3-2.4,1-2.4,2.4-2.4,2.4,1.1,2.4,2.4Zm-4.3,27.3v-21.3h3.9v21.3h-3.9Z"/>
      <path class="cls-5" d="m197.1,22.8c0-2.2,0-4-.2-5.8h3.4l.2,3.5h0c1.1-2,3.5-4,7-4s7.5,1.8,7.5,9.1v12.7h-3.9v-12.3c0-3.4-1.3-6.3-4.9-6.3s-4.5,1.8-5.2,4c-.2.5-.3,1.1-.3,1.8v12.8h-3.9v-15.5Z"/>
      <path class="cls-5" d="m225.9,28.4c0,5.2,3.4,7.4,7.3,7.4s4.4-.5,5.9-1.1l.7,2.8c-1.4.6-3.7,1.3-7.1,1.3-6.6,0-10.5-4.3-10.5-10.7s3.8-11.5,10-11.5,8.8,6.1,8.8,10,0,1.4-.1,1.8h-15Zm11.4-2.8c0-2.5-1-6.3-5.4-6.3s-5.6,3.6-5.9,6.3h11.3Z"/>
    </g>
    <g>
      <path class="cls-5" d="m80.7,59.6l-1.7-6.6h.9l.8,3.3c.2.8.4,1.6.5,2.3h0c.1-.7.3-1.4.5-2.3l.9-3.3h.9l.8,3.3c.2.8.4,1.6.5,2.3h0c.1-.7.3-1.5.5-2.3l.9-3.3h.9l-1.9,6.6h-.9l-.8-3.4c-.2-.8-.3-1.5-.4-2.1h0c-.1.7-.3,1.3-.5,2.1l-.9,3.4h-.9Z"/>
      <path class="cls-5" d="m95.2,56.5h-2.6v2.4h2.8v.7h-3.7v-6.6h3.5v.7h-2.7v2.1h2.6v.7Z"/>
      <path class="cls-5" d="m100.5,53.1c.4,0,1-.1,1.6-.1.8,0,1.4.1,1.8.5.3.3.5.6.5,1.2s-.4,1.2-1.1,1.4h0c.6.2,1.4.7,1.4,1.7s-.2,1-.6,1.3c-.5.4-1.2.6-2.3.6s-1,0-1.3,0v-6.5Zm.8,2.7h.8c.9,0,1.4-.5,1.4-1.1s-.6-1.1-1.4-1.1-.6,0-.8,0v2.1Zm0,3.1c.2,0,.4,0,.7,0,.9,0,1.7-.3,1.7-1.3s-.8-1.3-1.7-1.3h-.7v2.5Z"/>
      <path class="cls-5" d="m115.7,53.1c.5,0,1.1-.1,1.8-.1,1.2,0,2.1.3,2.7.8.6.5.9,1.3.9,2.4s-.3,1.9-.9,2.6c-.6.6-1.6.9-2.9.9s-1.1,0-1.5,0v-6.5Zm.8,5.8c.2,0,.5,0,.9,0,1.8,0,2.8-1,2.8-2.8,0-1.5-.9-2.5-2.7-2.5s-.8,0-1,0v5.2Z"/>
      <path class="cls-5" d="m129.5,56.5h-2.6v2.4h2.8v.7h-3.7v-6.6h3.5v.7h-2.7v2.1h2.6v.7Z"/>
      <path class="cls-5" d="m136.3,59.6l-2.1-6.6h.9l1,3.2c.3.9.5,1.7.7,2.5h0c.2-.8.5-1.6.8-2.4l1.1-3.2h.9l-2.3,6.6h-.9Z"/>
      <path class="cls-5" d="m147.6,56.5h-2.6v2.4h2.8v.7h-3.7v-6.6h3.5v.7h-2.7v2.1h2.6v.7Z"/>
      <path class="cls-5" d="m152.9,53h.8v5.9h2.8v.7h-3.7v-6.6Z"/>
      <path class="cls-5" d="m166.6,56.2c0,2.3-1.4,3.5-3.1,3.5s-3-1.3-3-3.3,1.3-3.5,3.1-3.5,3,1.4,3,3.3Zm-5.1.1c0,1.4.8,2.7,2.1,2.7s2.1-1.2,2.1-2.7-.7-2.7-2.1-2.7-2.1,1.3-2.1,2.7Z"/>
      <path class="cls-5" d="m171.6,53.1c.4,0,.9-.1,1.6-.1s1.5.2,1.8.5c.4.3.6.8.6,1.4s-.2,1.1-.5,1.4c-.4.5-1.2.7-2,.7s-.5,0-.7,0v2.6h-.8v-6.5Zm.8,3.2c.2,0,.4,0,.7,0,1,0,1.6-.5,1.6-1.4s-.6-1.3-1.6-1.3-.7,0-.8,0v2.6Z"/>
      <path class="cls-5" d="m184.1,56.5h-2.6v2.4h2.8v.7h-3.7v-6.6h3.5v.7h-2.7v2.1h2.6v.7Z"/>
      <path class="cls-5" d="m189.4,53.1c.4,0,1-.1,1.6-.1.9,0,1.5.2,1.9.5.3.3.5.7.5,1.2,0,.9-.5,1.4-1.2,1.7h0c.5.2.8.7,1,1.4.2.9.4,1.5.5,1.8h-.9c-.1-.2-.3-.8-.4-1.6-.2-.9-.5-1.2-1.3-1.3h-.8v2.8h-.8v-6.5Zm.8,3h.9c.9,0,1.5-.5,1.5-1.2s-.6-1.2-1.5-1.2c-.4,0-.7,0-.8,0v2.4Z"/>
    </g>
  </g>
  <rect class="cls-5" width="61.6" height="61.6" rx="11.5" ry="11.5"/>
  <g>
    <path class="cls-1" d="m32.7,36.9h-10.8l-10.2-11.1,10.2-11.1h10.8l-10.3,11.1,10.3,11.1Z"/>
    <path class="cls-1" d="m30.4,25.2h10.8l10.2,11.1-10.2,11.1h-10.8l10.3-11.1-10.3-11.1Z"/>
    <g class="cls-6">
      <polyline class="cls-3" points="29.6 10.7 16.8 25.8 28.1 38.9"/>
    </g>
    <g class="cls-2">
      <polyline class="cls-3" points="33.6 51.2 46.4 36.1 35.1 23"/>
    </g>
  </g>
</svg>