<?xml version="1.0" encoding="UTF-8"?>
<svg id="svg7182" xmlns="http://www.w3.org/2000/svg" xmlns:xlink="http://www.w3.org/1999/xlink" viewBox="0 0 2226.6 2226.6">
  <defs>
    <style>
      .cls-1 {
        clip-path: url(#clippath);
      }

      .cls-2 {
        fill: none;
      }

      .cls-2, .cls-3, .cls-4 {
        stroke-width: 0px;
      }

      .cls-3 {
        fill: #323e48;
      }

      .cls-4 {
        fill: #fff;
      }
    </style>
    <clipPath id="clippath">
      <rect class="cls-2" x="270.3" y="270.3" width="1686.1" height="1686.1"/>
    </clipPath>
  </defs>
  <g id="layer1">
    <g id="g7146">
      <path id="path6270" class="cls-3" d="m0,2226.6h2226.6V0H0v2226.6Z"/>
      <g id="g6272">
        <g class="cls-1">
          <g id="g6274">
            <g id="g6280">
              <path id="path6282" class="cls-4" d="m948.1,1714.6v-110.9s-29.8-8.7-100.5-8.7-99.8,8.7-99.8,8.7v110.9h30.7v-33.3h138.5v33.3h31.1Zm-31.1-58.8h-138.5v-32.3c9-1.2,33-3.3,69.1-3.3,36.7.2,60.3,2.4,69.4,3.6v32Z"/>
            </g>
            <path id="path6284" class="cls-4" d="m1471.7,1599.4h31.4v115.1h-31.4v-115.1Z"/>
            <g id="g6286">
              <path id="path6288" class="cls-4" d="m1158.2,1599.8c-.6,0-1.4-.1-2.1-.2-13.3-1.4-30.2-2.6-50.7-3h0c-4.5-.1-9.2-.2-14.1-.2-64.4,0-99.8,8.6-99.8,8.6v110.2h31v-90c8-1.1,26.5-3.2,54.8-3.6,0,13.9.2,93.5.2,93.5h27.6s.3-79.8.3-93.3c24.1.5,42,2.3,55.3,3.8v89.7h30.9v-110.2s-10.9-2.7-31.5-5.1c-.6,0-1.2,0-1.9-.1"/>
            </g>
            <g id="g6290">
              <path id="path6292" class="cls-4" d="m1424.7,1644.4h-162.4v-.4c-2.4-9.4,0-21.2,0-21.2,8.6-1.2,30.7-3.4,67.9-3.4,47.9.1,82.7,5.6,94.5,7.8v-24.5c-11.2-2.2-43.9-7.5-94.2-7.5s-78,4.6-91.4,7c-.5,1.2-8.8,27.1-.1,66.7h159.6v.2h.2c2.5,9.2,0,19.2,0,19.2l-.2-.2v.4c-7.3.8-26.5,2.5-68.3,2.8-47.4.2-84.4-5.6-95.5-7.5v24.3c10.2,2,43,7.6,95.5,7.6s81.1-4.9,93.3-7.2c1.3-3.3,9.8-26.3,1.2-63.8"/>
            </g>
            <g id="g6294">
              <path id="path6296" class="cls-4" d="m1715.5,1686c-16.7,2-40.6,4-70.6,4s-59.1-2.2-67.8-3.3v-62.5c9.1-1.1,32.1-3.3,68.3-3.3,28.5.1,51.6,2,68.4,3.9-1.5-13.2-3.1-22.3-3.9-25.8-16-1.7-37.6-3.3-64.5-3.3-65.4,0-99,8.6-99,8.6v102.3s34.3,8.6,99,8.6,51.8-1.8,68.3-3.7c1-8.8,1.6-17.4,1.9-25.5"/>
            </g>
            <g id="g6298">
              <path id="path6300" class="cls-4" d="m700.7,1644.4h-162.3v-.4c-2.4-9.4,0-21.2,0-21.2,8.6-1.2,30.7-3.4,68-3.4,47.8.1,82.7,5.6,94.5,7.8v-24.5c-11.4-2.2-44-7.5-94.3-7.5s-78,4.6-91.5,7c-.4,1.2-8.7,27.1,0,66.7h159.6v.2h.1c2.5,9.2,0,19.2,0,19.2v-.2c-.1,0-.1.4-.1.4-7.3.8-26.5,2.5-68.3,2.8-46.9.2-83.3-5.4-95-7.5.4,7.8,1,16,2,24.6,12.4,2.4,44.1,7.2,93,7.2s81-4.9,93.2-7.2c1.3-3.3,9.8-26.3,1.1-63.8"/>
            </g>
            <g id="g6302">
              <path id="path6304" class="cls-4" d="m1691.4,817.7h-1010.7v-3c-14.7-58.3,0-131.7,0-131.7,53.6-8,191.1-21.2,423.6-21.2,298,1.1,514.5,34.7,588.3,48v-152.5c-70.5-13.4-273.7-46.2-586.9-46.2s-485.8,27.9-569.6,42.9c-2.9,6.9-54.3,169-.4,415.6h993.7v.7l.7-.5c16.2,57.6,0,120,0,120l-.7-1.1v2.3c-45.4,5.3-165.1,16-425.1,17.3-292,1.1-518.8-33.6-591.2-46.1,2.1,48.6,5.9,99.6,11.8,153.6,77.2,14.4,274.7,44.4,579.3,44.4s504.4-30.3,580.5-44.5c7.8-21,60.8-163.9,6.6-397.8"/>
            </g>
            <path id="path6306" class="cls-4" d="m1715.5,1436.5H511.2v-18.4h1204.3v18.4Z"/>
          </g>
        </g>
      </g>
    </g>
  </g>
</svg>